<svg width="64" height="64" xmlns="http://www.w3.org/2000/svg"><path fill="none" d="M-1-1h582v402H-1z"/><path fill="#00ff21" d="M10.8 54l3.7-14.9 22.7-22.7 11.2 11.2-22.7 22.7L10.8 54zm6.3-13.5l-2.4 9.6 9.6-2.4 20.2-20.2-7.2-7.2-20.2 20.2z" class="st0"/><path fill="#00ff21" d="M23.3 49.4c-1-3.9-4-6.9-7.9-7.9l.7-2.8c4.9 1.2 8.7 5 9.9 9.9l-2.7.8M12.8 52l4.4-1.1c-.4-1.6-1.7-2.9-3.3-3.3L12.8 52m36.7-25.5L38.3 15.3l4.5-4.5.7.1c5.4.7 9.7 5 10.4 10.4l.1.7-4.5 4.5zm-7.1-11.2l7.2 7.2 1.4-1.4c-.8-3.6-3.6-6.4-7.2-7.2l-1.4 1.4z" class="st0"/></svg>