<svg viewBox="0 0 512 512" xmlns="http://www.w3.org/2000/svg"><g data-name="1"><path d="M102.59 341.42a15 15 0 01-13.42-8.28 187.41 187.41 0 0135.11-216.86c73.18-73.19 192.26-73.19 265.44 0a15 15 0 01-21.21 21.21C307 76 207 76 145.49 137.49A157.45 157.45 0 00116 319.69a15 15 0 01-13.4 21.73zM257 436.61a187.1 187.1 0 01-132.72-54.88 15 15 0 1121.21-21.22C207 422 307 422 368.51 360.51A157.45 157.45 0 00398 178.31a15 15 0 0126.82-13.45A187.62 187.62 0 01257 436.61z"/><path d="M315.21 148.25a15 15 0 01-1.47-29.92l47.43-4.73-9.51-47.67a15 15 0 0129.42-5.86L393.82 124a15 15 0 01-13.22 17.86l-63.88 6.37c-.51 0-1.01.02-1.51.02zM147.61 450a15 15 0 01-14.7-12.07l-12.74-63.88a15 15 0 0113.23-17.86l63.88-6.37a15 15 0 013 29.85l-47.43 4.73 9.5 47.67A15 15 0 01147.61 450z"/></g></svg>