<svg width="14" height="14" viewBox="0 0 14 14" fill="none" xmlns="http://www.w3.org/2000/svg"><path d="M2.16 11.721V5.396h2.106v6.325H2.16zm2.242-8.276c0 .602-.455 1.094-1.194 1.094H3.2c-.71 0-1.166-.492-1.166-1.094 0-.62.474-1.093 1.194-1.093s1.166.474 1.175 1.093zm5.332 8.276V8.34c0-.857-.3-1.431-1.057-1.431-.583 0-.93.392-1.085.765-.054.137-.063.329-.063.51v3.537H5.423c.028-5.733 0-6.325 0-6.325H7.53v.92h-.02c.274-.437.775-1.066 1.905-1.066 1.386 0 2.425.902 2.425 2.844v3.627H9.734zM14 2.625A2.626 2.626 0 0011.375 0h-8.75A2.626 2.626 0 000 2.625v8.75A2.626 2.626 0 002.625 14h8.75A2.626 2.626 0 0014 11.375v-8.75z" fill="#D728F4"/></svg>