<svg width="14" height="11" viewBox="0 0 14 11" fill="none" xmlns="http://www.w3.org/2000/svg"><path d="M14 1.306a5.906 5.906 0 01-1.652.43 2.787 2.787 0 001.261-1.53c-.55.318-1.172.55-1.82.67A2.908 2.908 0 009.691 0c-1.59 0-2.87 1.246-2.87 2.776 0 .215.027.43.071.636C4.513 3.292 2.39 2.192.977.507c-.249.413-.39.885-.39 1.4 0 .963.506 1.814 1.278 2.313A2.964 2.964 0 01.57 3.867v.035c0 1.349.986 2.466 2.3 2.724a3.13 3.13 0 01-.755.094c-.186 0-.364-.017-.542-.043.365 1.1 1.422 1.9 2.683 1.925A5.87 5.87 0 01.693 9.788 6.13 6.13 0 010 9.754 8.308 8.308 0 004.406 11c5.277 0 8.164-4.228 8.164-7.898 0-.12 0-.24-.01-.36A6.063 6.063 0 0014 1.305z" fill="#D728F4"/></svg>