<?xml version="1.0" encoding="UTF-8"?>
<svg width="64px" height="64px" viewBox="0 0 64 64" xmlns="http://www.w3.org/2000/svg" xmlns:xlink="http://www.w3.org/1999/xlink" version="1.1">
 <!-- Generated by Pixelmator Pro 1.3.1 -->
 <path id="path" d="M32.541 56.747 C48.52 55.857 59.708 43.732 56.856 27.622 54.534 14.504 41.675 5.718 28.671 7.477 15.488 9.26 5.347 21.469 6.846 34.751 8.269 46.715 15.628 52.308 21.768 54.835 23.197 55.423 25.118 56.281 25.767 56.142 26.416 56.003 26.208 52.405 26.208 50.67 22.208 51.285 20.839 49.709 19.989 48.779 19.025 47.724 18.458 46.638 17.473 45.045 16.489 43.451 14.707 43.826 14.52 42.904 14.332 41.982 18.27 42.232 21.098 45.716 23.145 48.253 25.33 47.489 26.504 46.763 26.543 46.36 26.636 45.82 26.864 45.216 27.106 44.577 27.77 44.19 27.666 43.753 27.562 43.315 22.215 43.609 19.166 39.336 16.964 36.25 16.884 32.597 17.749 29.878 18.33 28.054 19.298 26.767 19.957 26.024 19.705 25.483 19.329 24.496 19.312 23.211 19.293 21.824 19.7 20.762 19.957 20.211 20.83 20.237 22.092 20.372 23.52 20.878 24.887 21.362 25.918 22.013 26.603 22.524 27.847 22.106 29.658 21.651 31.874 21.607 34.408 21.556 36.46 22.062 37.791 22.503 38.445 21.919 39.537 21.091 41.082 20.523 42.205 20.111 43.212 19.966 43.957 19.919 44.243 20.46 44.726 21.549 44.749 23.002 44.77 24.34 44.393 25.37 44.145 25.918 44.862 26.783 45.994 28.387 46.521 30.667 46.708 31.479 47.735 35.912 44.772 39.727 41.67 43.72 36.507 43.108 36.274 43.659 36.041 44.211 37.265 45.234 37.84 47.379 38.416 49.524 38.172 53.623 38.172 53.623" fill="#000000" fill-opacity="1" stroke="none"/>
</svg>
